<svg width="23" height="16" viewBox="0 0 23 16" fill="none" xmlns="http://www.w3.org/2000/svg">
<path d="M23 13.639C23 14.9002 21.9984 15.9019 20.7742 15.9019H2.22581C1.00161 15.9019 0 14.9002 0 13.639V2.36154C0 1.10025 1.00161 0.0986328 2.22581 0.0986328H20.7742C21.9984 0.0986328 23 1.10025 23 2.36154V13.639Z" fill="#469369"/>
<path d="M2.81831 3.69704C2.9667 3.58575 2.9667 3.88252 2.81831 4.21639C2.8925 4.1051 3.04089 3.84543 3.00379 3.65994C2.9667 3.40027 2.81831 3.43736 2.70702 3.58575C2.63283 3.69704 2.66992 3.77123 2.81831 3.69704Z" fill="white"/>
<path d="M2.85579 5.81162C3.04127 5.47775 2.96708 5.21807 3.11547 4.73581C3.22676 4.43904 3.22676 4.66162 3.22676 4.8471C3.15256 5.32936 3.18966 6.10839 3.8574 6.07129C3.8945 6.51646 4.00579 7.29549 4.00579 7.59226C4.00579 7.85194 4.04289 7.77775 4.11708 7.62936C4.19127 7.48097 4.15418 7.29549 4.15418 7.07291C4.15418 6.85033 4.11708 6.44226 4.07998 5.88581C4.15418 5.81162 4.26547 5.70033 4.30256 5.62613C4.37676 5.44065 4.41386 5.47775 4.45095 5.62613C4.52515 5.92291 4.82192 6.10839 5.19289 5.81162C5.56385 5.55194 5.41547 5.03258 5.22998 4.47613C5.37837 4.51323 5.41547 4.40194 5.34127 4.25355C5.30418 4.17936 5.22998 4.10517 5.19289 4.03097C5.11869 3.95678 5.0816 3.88259 5.0074 3.95678C4.93321 4.03097 4.89611 4.10517 4.85902 4.14226C4.82192 4.17936 4.82192 4.25355 4.85902 4.36484C5.0074 4.69871 5.0816 5.06968 5.11869 5.25517C5.15579 5.44065 5.0816 5.47775 4.93321 5.47775C4.82192 5.47775 4.63644 5.44065 4.56224 5.14388C4.48805 4.8471 4.45095 4.73581 4.48805 4.51323C4.48805 4.32775 4.52515 4.17936 4.37676 3.99388C4.22837 3.80839 4.22837 3.84549 4.19127 3.91968C4.15418 4.03097 4.11708 4.17936 4.15418 4.36484C4.22837 4.62452 4.26547 4.8471 4.30256 4.99549C4.33966 5.10678 4.22837 5.32936 4.04289 5.44065C4.00579 5.06968 3.96869 4.62452 3.9316 4.21646C4.15418 4.14226 4.04289 3.88259 3.8574 3.58581C3.74611 3.36323 3.67192 3.43742 3.59773 3.58581C3.52353 3.7342 3.56063 3.80839 3.63482 3.91968C3.59773 4.03097 3.67192 4.17936 3.70902 4.43904C3.74611 4.62452 3.78321 5.10678 3.78321 5.51484C3.63482 5.51484 3.52353 5.40355 3.44934 5.25517C3.33805 4.95839 3.33805 4.66162 3.41224 4.51323C3.48644 4.32775 3.52353 4.06807 3.41224 3.99388C3.30095 3.91968 3.18966 3.99388 3.11547 4.14226C2.96708 4.36484 2.81869 4.66162 2.81869 4.99549C2.81869 5.10678 2.7816 5.36646 2.7074 5.47775C2.67031 5.58904 2.55902 5.58904 2.48482 5.44065C2.33644 5.21807 2.29934 4.62452 2.29934 4.32775C2.29934 4.17936 2.26224 4.14226 2.22515 4.32775C2.07676 4.92129 2.26224 5.51484 2.37353 5.77452C2.55902 6.10839 2.7445 6.0342 2.85579 5.81162Z" fill="white"/>
<path d="M4.63636 3.88257C4.71055 3.80838 4.71055 3.80838 4.74765 3.88257C4.78475 3.95677 4.89604 3.95677 4.93313 3.88257C4.97023 3.80838 5.00733 3.77128 4.97023 3.65999C4.93313 3.5858 4.93313 3.6229 4.89604 3.69709C4.85894 3.84548 4.71055 3.80838 4.71055 3.6229C4.71055 3.43741 4.67346 3.5487 4.59926 3.65999C4.52507 3.84548 4.41378 3.80838 4.41378 3.6229C4.41378 3.51161 4.37668 3.40032 4.30249 3.5487C4.26539 3.65999 4.30249 3.77128 4.33959 3.84548C4.45088 3.95677 4.56217 3.95677 4.63636 3.88257Z" fill="white"/>
<path d="M3.52329 6.66484C3.63458 6.62774 3.63458 6.62774 3.63458 6.47936C3.63458 6.33097 3.56039 6.40516 3.412 6.44226C3.18942 6.51645 2.74426 6.73903 2.41039 7.1471C2.262 7.33258 2.37329 7.25839 2.48458 7.18419C2.67006 7.03581 3.22652 6.73903 3.52329 6.66484Z" fill="white"/>
<path d="M2.78117 9.03902C2.66988 9.2245 2.4473 8.96482 2.59568 8.48257C2.63278 8.37128 2.66988 8.29708 2.66988 8.22289C2.66988 8.1487 2.66988 8.0745 2.66988 7.96321C2.66988 7.88902 2.59568 8.00031 2.55859 8.1487C2.52149 8.37128 2.3731 8.48257 2.4102 9.18741C2.4473 9.59547 2.92956 9.59547 2.96665 9.07612C2.96665 8.85354 2.89246 8.85353 2.78117 9.03902Z" fill="white"/>
<path d="M6.08358 7.48092C6.08358 7.29544 6.04648 7.10996 6.04648 6.92447C6.08358 6.92447 6.08358 6.88738 6.12068 6.88738C6.23197 7.22125 6.71423 7.14705 6.86261 6.92447C6.93681 6.81318 6.93681 6.81318 7.011 6.92447C7.12229 7.07286 7.49326 7.14705 7.56745 6.92447C7.64165 6.70189 7.64165 6.47931 7.60455 6.33092C7.56745 6.14544 7.53036 6.18254 7.41907 6.25673C7.30778 6.33092 7.38197 6.36802 7.41907 6.47931C7.45616 6.92447 7.08519 6.88738 7.0481 6.44221C7.011 6.14544 6.9739 6.25673 6.93681 6.40512C6.75132 6.96157 6.26907 7.07286 6.34326 6.40512C6.34326 6.21963 6.23197 6.29383 6.15778 6.36802C6.12068 6.40512 6.04648 6.47931 6.00939 6.51641C5.97229 5.99705 5.93519 5.4035 5.861 4.66157C6.00939 4.84705 6.15777 4.62447 6.04648 4.43899C5.97229 4.2906 5.861 3.91963 5.78681 3.73415C5.71261 3.54867 5.67552 3.58576 5.52713 3.77125C5.37874 3.91963 5.41584 3.95673 5.45294 4.14221C5.45294 4.3648 5.45294 4.55028 5.52713 4.95834C5.56423 5.25512 5.63842 5.88576 5.71261 6.66479C5.63842 6.70189 5.52713 6.77609 5.45294 6.81318C5.41584 6.66479 5.30455 6.5906 5.15616 6.44221C4.93358 6.21963 4.78519 6.21963 4.59971 6.47931C4.41423 6.73899 4.45132 6.77609 4.45132 7.03576C4.45132 7.25834 4.41423 7.33254 4.59971 7.40673C4.78519 7.48092 4.85939 7.44383 4.97068 7.40673C5.04487 7.36963 5.15616 7.33254 5.30455 7.29544C5.34165 7.40673 5.30455 7.55512 5.23036 7.62931C4.78519 8.14867 4.11745 8.55673 3.82068 8.18576C3.67229 8.00028 3.5981 7.70351 3.63519 7.33254C3.67229 7.03576 3.5981 7.18415 3.561 7.25834C3.44971 7.59221 3.41261 8.11157 3.561 8.37125C3.74648 8.74221 4.08036 8.8906 4.59971 8.63092C5.11907 8.40834 5.60132 8.00028 5.60132 7.44383C5.60132 7.33254 5.60132 7.25834 5.60132 7.18415C5.67552 7.14705 5.74971 7.10996 5.78681 7.07286C5.78681 7.25834 5.78681 7.51802 5.78681 7.70351C5.8239 8.29705 5.56423 8.48254 5.34165 8.66802C5.04487 8.8906 4.63681 9.07609 4.26584 9.11318C3.44971 9.22447 3.26423 8.70512 3.26423 8.00028C3.26423 7.88899 3.30132 7.8148 3.30132 7.66641C3.30132 7.36963 3.26423 7.40673 3.15294 7.70351C3.07874 8.00028 2.96745 8.66802 3.22713 9.22447C3.5239 9.78092 4.48842 9.63254 5.23036 9.26157C6.04648 8.85351 6.12068 8.18576 6.08358 7.48092ZM5.04487 6.92447C4.85939 6.99867 4.78519 6.88738 4.82229 6.77609C4.82229 6.6648 4.85939 6.5906 5.00777 6.66479C5.08197 6.70189 5.15616 6.77609 5.23036 6.88738C5.11907 6.92447 5.08197 6.92447 5.04487 6.92447Z" fill="white"/>
<path d="M6.93614 8.11161C7.01033 7.96322 7.04743 7.81483 7.01033 7.62935C6.97323 7.51806 7.01033 7.48096 6.89904 7.40677C6.78775 7.36967 6.75065 7.44387 6.71355 7.51806C6.67646 7.62935 6.75065 7.77774 6.89904 7.70354C6.93614 7.77774 6.89904 7.96322 6.86194 8.07451C6.82484 8.2229 6.86194 8.25999 6.93614 8.11161Z" fill="white"/>
<path d="M7.23327 5.10676C7.08489 5.29224 6.9736 5.55192 7.19618 5.70031C7.30747 5.7745 7.53005 5.66321 7.60424 5.51482C7.67843 5.32934 7.64134 5.29224 7.49295 5.47773C7.30747 5.70031 7.08489 5.51482 7.30747 5.18095C7.45585 4.95837 7.34456 4.92127 7.23327 5.10676Z" fill="white"/>
<path d="M6.60267 5.14385C7.12202 4.92127 7.4188 4.6245 7.56718 4.36482C7.71557 4.40192 7.75267 4.29063 7.67847 4.17934C7.71557 4.06805 7.75267 3.99385 7.78976 3.91966C7.90105 3.4374 7.4188 3.4003 7.30751 3.77127C7.23331 3.95676 7.23331 4.14224 7.3817 4.25353C7.15912 4.5503 6.86234 4.80998 6.49138 5.03256C6.34299 5.18095 6.38009 5.25514 6.60267 5.14385ZM7.49299 3.84546C7.53009 3.73417 7.60428 3.80837 7.60428 3.88256C7.60428 3.91966 7.56718 3.99385 7.53009 4.03095C7.45589 3.99385 7.45589 3.91966 7.49299 3.84546Z" fill="white"/>
<path d="M7.30751 3.77127C7.23331 3.95676 7.23331 4.14224 7.3817 4.25353C7.3446 4.29063 7.3085 4.36473 7.2714 4.40182L7.45689 4.55021C7.49398 4.47602 7.56818 4.43892 7.60527 4.36473C7.75366 4.40182 7.79076 4.29053 7.71656 4.17924C7.75366 4.06795 7.79076 3.99376 7.82785 3.91957C7.90205 3.43731 7.45589 3.4003 7.30751 3.77127ZM7.60428 3.88256C7.60428 3.91966 7.56718 3.99385 7.53009 4.03095C7.45589 3.99385 7.45589 3.91966 7.49299 3.84546C7.53009 3.73417 7.60428 3.80837 7.60428 3.88256Z" fill="white"/>
<path d="M7.86501 8.1116C7.79082 8.1487 7.67953 8.25999 7.60533 8.33418C7.60533 8.1858 7.64243 7.96322 7.64243 7.88902C7.64243 7.77773 7.60533 7.74064 7.53114 7.85193C7.41985 8.07451 7.30856 8.37128 7.27146 8.59386C6.78921 8.92773 6.19566 9.2616 5.78759 9.44709C5.60211 9.52128 5.7134 9.59547 5.86179 9.55838C6.41824 9.37289 6.8634 9.22451 7.27146 9.03902C7.30856 9.37289 7.41985 9.59547 7.71662 9.66967C8.27308 9.81805 8.82953 9.3358 9.46017 8.48257C9.60856 8.89064 9.97953 9.44709 10.944 9.59547C11.3521 9.66967 11.315 9.63257 11.3892 9.40999C11.4263 9.22451 11.5005 9.18741 11.1666 9.11322C10.7586 8.96483 10.6102 8.66805 11.0182 8.48257C11.4263 8.29709 11.9828 8.1487 12.3537 8.07451C12.6134 8.03741 12.6876 8.03741 12.7618 7.81483C12.836 7.55515 12.8731 7.51805 12.6134 7.55515C12.3166 7.59225 10.9069 7.62935 10.536 7.59225C10.8328 7.44386 11.2408 7.29547 11.5376 7.18418C11.6489 7.25838 11.686 7.22128 11.6489 7.14709C11.7602 7.10999 11.8715 7.07289 11.9828 6.9987C12.3166 6.81322 12.465 6.40515 12.094 6.14547C11.7231 5.8858 11.4263 5.8116 11.2408 6.07128C11.0924 6.29386 10.944 6.51644 11.1666 6.81322C10.8328 6.92451 10.536 7.0358 10.2392 7.14709C10.0166 7.22128 9.90533 7.25838 9.83114 7.55515C9.75695 7.85193 9.71985 7.85193 10.0166 7.88902C10.4247 7.88902 10.7957 7.88902 11.0553 8.1116C10.6473 8.25999 10.3505 8.55676 10.4989 8.96483C10.3134 8.92773 10.1279 8.85354 9.97953 8.70515C9.68275 8.40838 9.68275 7.88902 9.57146 7.29547C9.46017 6.70193 9.2005 6.18257 9.0892 5.95999C9.01501 5.73741 8.97791 5.8487 8.90372 5.99709C8.82953 6.14547 8.75533 6.21967 8.82953 6.44225C8.97791 6.81322 9.2005 7.55515 9.31179 8.00031C9.08921 8.51967 8.49566 9.15031 8.0134 9.22451C7.64243 9.2987 7.53114 9.07612 7.56824 8.89064C7.82791 8.74225 8.0505 8.55676 8.27308 8.33418C8.71824 7.85193 8.79243 7.48096 8.49566 6.70193C8.68114 6.73902 8.64404 6.59064 8.38437 6.25676C8.19888 6.03418 8.16179 6.07128 8.0505 6.29386C7.9763 6.47935 7.90211 6.62773 8.12469 6.70193C8.16179 6.81322 8.23598 6.9616 8.34727 7.14709C8.56985 7.62935 8.19888 7.81483 7.86501 8.1116ZM11.3892 6.47935C11.3892 6.36805 11.4263 6.36805 11.6118 6.47935C11.7973 6.59064 11.9457 6.62773 11.686 6.66483C11.6118 6.70193 11.5005 6.70193 11.4263 6.73902C11.4263 6.62773 11.4263 6.55354 11.3892 6.47935Z" fill="white"/>
<path d="M12.5756 7.55508C12.3902 7.55508 11.574 7.59218 11.0176 7.59218L11.7595 8.22282C11.945 8.14863 12.1676 8.11153 12.316 8.07444C12.5756 8.03734 12.6498 8.03734 12.724 7.81476C12.7982 7.55508 12.8353 7.51798 12.5756 7.55508Z" fill="white"/>
<path d="M8.94043 5.81154L9.01462 5.88574C9.01462 5.81154 8.97753 5.81154 8.94043 5.81154Z" fill="white"/>
<path d="M10.8319 7.40674C11.0545 7.29545 11.3142 7.22126 11.4996 7.14707C11.6109 7.22126 11.648 7.18416 11.6109 7.10997C11.7222 7.07287 11.8335 7.03578 11.9448 6.96158C12.2787 6.7761 12.4271 6.36803 12.0561 6.10836C11.6851 5.84868 11.3883 5.77449 11.2029 6.03416C11.0545 6.25674 10.9061 6.47932 11.1287 6.7761C10.869 6.85029 10.6464 6.92449 10.4238 7.03578L10.8319 7.40674ZM11.648 6.47932C11.8335 6.59061 11.9819 6.62771 11.7222 6.66481C11.648 6.7019 11.5367 6.70191 11.4625 6.739C11.4254 6.62771 11.4254 6.55352 11.4254 6.51642C11.3883 6.36803 11.4625 6.36803 11.648 6.47932Z" fill="white"/>
<path d="M12.2415 9.48414C12.3528 9.44704 12.5383 9.33575 12.6867 9.22446C12.835 9.07608 12.7238 9.11317 12.6125 9.15027C12.5012 9.18737 12.3899 9.26156 12.2415 9.29866C12.0931 9.37285 12.056 9.29866 12.1302 9.03898C12.2044 8.8164 12.1302 8.8164 12.0189 8.8535C11.9076 8.89059 11.8705 8.96479 11.7592 9.03898C11.685 9.07608 11.685 9.15027 11.8705 9.07608C12.0189 9.00188 11.9818 9.07608 11.9447 9.26156C11.8705 9.44704 11.9818 9.55833 12.2415 9.48414Z" fill="white"/>
<path d="M8.79196 5.44059C8.90325 5.18091 8.97744 4.92123 9.05164 4.73575C9.12583 4.55026 9.20002 4.58736 9.16293 4.77284C9.12583 5.10671 9.12583 5.62607 9.4597 5.84865C9.79357 6.03413 10.3129 5.70026 10.4984 5.32929C11.0549 6.03413 11.5371 5.70026 11.5742 5.03252C11.5742 4.80994 11.5 4.36478 11.4258 4.21639C11.3516 4.068 11.4258 4.068 11.5 4.1422C11.5742 4.21639 11.7226 4.29058 11.6484 4.03091C11.5742 3.80833 11.4629 3.65994 11.3516 3.54865C11.2403 3.43736 11.2032 3.51155 11.1662 3.58575C11.1291 3.65994 11.1291 3.69704 11.0549 3.77123C10.9807 3.84542 11.0178 3.88252 11.0549 3.99381C11.2774 4.51317 11.4629 5.2922 11.1291 5.36639C10.8323 5.44058 10.6468 4.77284 10.6468 4.47607C10.6468 4.1051 10.5726 3.77123 10.4984 3.54865C10.4242 3.32607 10.3871 3.32607 10.3129 3.43736C10.2758 3.51155 10.2758 3.58575 10.2016 3.65994C10.1645 3.73413 10.2016 3.77123 10.2387 3.91962C10.4242 4.77284 10.3871 5.14381 10.0162 5.36639C9.64518 5.58897 9.4226 5.36639 9.4226 5.10671C9.4226 4.84704 9.4226 4.51317 9.4597 4.29058C9.4968 4.068 9.53389 3.99381 9.4597 3.88252C9.38551 3.77123 9.31131 3.80833 9.20002 3.95671C8.97744 4.29059 8.71776 4.84704 8.64357 5.10671C8.56938 5.36639 8.38389 5.2922 8.2726 5.06962C8.12422 4.80994 8.16131 4.32768 8.19841 4.1051C8.23551 3.91962 8.23551 3.84542 8.12422 4.03091C7.93873 4.55026 7.93873 5.06962 8.3468 5.51478C8.53228 5.84865 8.68067 5.70026 8.79196 5.44059Z" fill="white"/>
<path d="M9.83101 4.43899C9.83101 4.55028 9.83101 4.69867 9.9052 4.47609C9.9423 4.25351 9.9423 3.95673 9.86811 3.77125C9.79391 3.58577 9.75682 3.54867 9.68262 3.62286C9.60843 3.69706 9.60843 3.73415 9.68262 3.80835C9.75682 3.91964 9.86811 4.17931 9.83101 4.43899Z" fill="white"/>
<path d="M10.6101 6.18248C10.6101 6.47925 10.5359 6.47925 10.4246 6.18248C10.3875 6.07119 10.3504 6.07119 10.3133 6.21958C10.3133 6.47925 10.202 6.51635 10.1278 6.25667C10.0907 6.14538 10.0907 6.03409 10.0536 6.21958C10.0165 6.36796 10.0536 6.47925 10.1278 6.59054C10.202 6.66474 10.3133 6.66474 10.3504 6.55345C10.3875 6.44216 10.4246 6.44216 10.4988 6.51635C10.573 6.59054 10.8698 6.51635 10.7214 6.10828C10.6472 5.9599 10.6101 5.99699 10.6101 6.18248Z" fill="white"/>
<path d="M13.6142 3.84546C13.7255 3.91966 13.8368 4.10514 13.7997 4.32772C13.7626 4.51321 13.7997 4.6245 13.911 4.36482C14.0223 4.10514 13.9481 3.80837 13.8368 3.62288C13.7255 3.4374 13.6884 3.51159 13.6142 3.58579C13.54 3.69708 13.5029 3.80837 13.6142 3.84546Z" fill="white"/>
<path d="M11.7227 3.95671C11.7227 4.068 11.7598 4.14219 11.9082 4.17929C12.205 4.58735 12.5388 5.03251 12.8356 5.44058C12.8727 5.81155 12.9469 6.18251 12.984 6.51638C13.0582 7.25832 13.2066 8.25993 13.0953 8.7051C13.0211 9.03897 13.0953 9.15026 13.2437 8.668C13.3921 8.18574 13.3921 7.70348 13.2808 6.99864C13.2437 6.70187 13.2437 6.368 13.2066 5.99703C13.6888 6.77606 14.1711 7.518 14.3566 8.03735C14.4679 8.33413 14.5792 8.37122 14.4679 8.00026C14.3566 7.4809 13.8743 6.59058 13.1324 5.47768C13.0953 5.1809 13.0953 4.88413 13.0953 4.66155C13.2066 4.77284 13.2808 4.69864 13.2437 4.55026C13.1695 4.25348 13.0582 4.0309 12.9469 3.73413C12.9098 3.58574 12.7614 3.58574 12.6872 3.77122C12.613 3.9938 12.613 4.0309 12.6872 4.17929C12.6872 4.36477 12.7243 4.62445 12.7614 4.88413C12.6501 4.69864 12.4646 4.43897 12.3163 4.25348C12.5017 4.32768 12.6501 4.29058 12.4646 4.068C12.2792 3.88251 12.0195 3.65993 11.8711 3.51155C11.7227 3.36316 11.6485 3.47445 11.6485 3.58574C11.7227 3.77122 11.7598 3.84542 11.7227 3.95671Z" fill="white"/>
<path d="M13.8378 4.99544C13.8007 5.18092 13.7265 5.10673 13.6895 4.95834C13.6524 4.88415 13.6153 4.92125 13.6153 5.06963C13.6524 5.21802 13.6895 5.32931 13.8007 5.21802C13.8749 5.14383 13.8749 5.14383 13.9862 5.21802C14.0604 5.29221 14.1346 5.21802 14.1717 5.18092C14.1717 5.14383 14.2088 5.06963 14.1717 4.88415C14.1346 4.69867 14.0975 4.80996 14.0604 4.95834C14.0233 5.10673 13.9491 5.14383 13.912 4.95834C13.912 4.80996 13.8378 4.84705 13.8378 4.99544Z" fill="white"/>
<path d="M14.6904 7.40671C14.7275 8.07445 14.8017 8.37122 14.3936 8.85348C13.9485 9.33574 13.6517 9.48413 13.4662 9.52122C13.2065 9.59542 13.1324 9.70671 13.5033 9.66961C14.0598 9.63251 14.134 9.63251 14.6162 9.07606C14.8759 8.77929 14.9872 8.40832 14.9872 7.518C14.9501 5.95993 14.7646 5.29219 14.7646 4.43896C14.8388 4.51316 14.9501 4.51316 14.913 4.36477C14.8388 4.17929 14.8017 3.95671 14.7646 3.77122C14.6904 3.58574 14.6533 3.51155 14.5791 3.62284C14.5049 3.73413 14.4307 3.77122 14.3936 3.84542C14.3565 3.91961 14.3194 4.0309 14.3936 4.14219C14.6162 5.95993 14.6533 6.73896 14.6904 7.40671Z" fill="white"/>
<path d="M15.6546 7.59221C15.6917 7.96318 15.7659 8.22285 15.6546 8.66802C15.6175 8.77931 15.6917 8.8535 15.7659 8.66802C16.0997 8.03737 15.8771 7.48092 15.84 7.10995C15.803 6.5535 15.5804 5.10673 15.5433 4.51318L15.5804 4.55027C15.7288 4.62447 15.9142 4.69866 15.8029 4.47608C15.6917 4.2906 15.5804 3.95673 15.5062 3.73415C15.432 3.51156 15.3949 3.51156 15.2836 3.69705C15.061 3.99382 15.2094 4.2906 15.2836 4.66156C15.432 5.92285 15.6175 7.22124 15.6546 7.59221Z" fill="white"/>
<path d="M16.4336 5.51473C16.5448 5.62602 16.619 5.8486 16.6932 5.95989C16.7674 6.14537 16.8416 5.99699 16.8416 5.8857C16.8416 5.77441 16.8045 5.44053 16.8416 5.32924C16.9158 5.14376 17.0271 5.40344 17.0642 5.29215C17.1013 5.21795 17.0271 5.18086 16.99 5.10666C16.9529 4.99537 16.9158 5.03247 16.8416 5.06957C16.7674 5.14376 16.7303 5.21795 16.7303 5.25505C16.7303 5.36634 16.7303 5.47763 16.7303 5.66312C16.7303 5.8115 16.6932 5.8115 16.6561 5.73731C16.619 5.62602 16.5077 5.36634 16.4336 5.29215C16.3594 5.21795 16.2481 5.25505 16.2481 5.36634C16.2481 5.47763 16.2481 5.44054 16.2481 5.55183C16.2481 5.62602 16.3965 5.62602 16.4336 5.51473Z" fill="white"/>
<path d="M16.3594 6.96153C16.3594 7.07282 16.5078 6.92443 16.6191 6.85024C16.7304 6.77604 17.0642 6.55346 17.2126 6.47927C17.361 6.40507 17.3239 6.36798 17.2868 6.21959C17.2868 6.0712 17.1755 6.18249 17.0642 6.29378C16.9529 6.40507 16.6191 6.62766 16.5078 6.73895C16.3965 6.85024 16.3594 6.88733 16.3594 6.96153Z" fill="white"/>
<path d="M15.5808 8.96477C15.4324 8.668 15.4324 8.37123 15.4324 8.11155C15.4324 7.88897 15.3953 7.70348 15.3211 8.07445C15.0985 8.96478 15.2469 9.15026 15.4695 9.33574C15.7663 9.59542 15.8775 9.63252 16.0259 9.37284C16.3227 8.92768 16.434 8.55671 16.5824 8.33413C16.7308 8.14865 16.7308 8.29703 16.805 8.37123C16.9905 8.59381 17.1388 8.668 17.3985 8.7051C17.6582 8.7422 18.1034 8.51961 18.0663 7.70349C18.0292 7.18413 17.9921 6.51639 17.955 5.77445C18.2146 6.10832 18.4001 6.4051 18.5856 6.66477C18.6598 7.14703 18.6969 7.59219 18.6969 7.92606C18.6598 8.33413 18.7711 8.33413 18.8453 7.92606C18.8824 7.77768 18.8824 7.40671 18.8453 6.99865C19.1792 7.44381 19.3646 7.70348 19.4759 7.92606C19.6243 8.18574 19.6985 8.37123 19.6614 7.88897C19.6614 7.70348 19.5872 7.5551 19.3646 7.22123C19.1421 6.92445 18.9566 6.62768 18.7711 6.3309C18.6969 5.62607 18.6227 4.84703 18.6227 4.43897C18.734 4.51316 18.8082 4.43897 18.734 4.29058C18.6969 4.14219 18.5856 3.69703 18.5114 3.54865C18.4372 3.40026 18.363 3.40026 18.2888 3.58574C18.2146 3.73413 18.1405 3.80832 18.1775 3.91961C18.2146 4.62445 18.2888 5.29219 18.4001 5.88574C18.2146 5.62607 18.0292 5.36639 17.8808 5.14381C17.8808 4.88413 17.8437 4.62445 17.8437 4.36478C17.955 4.43897 17.9921 4.43897 17.955 4.25348C17.9179 4.1051 17.7695 3.73413 17.6953 3.58574C17.6211 3.43736 17.584 3.43736 17.5098 3.54865C17.3985 3.73413 17.3614 3.88252 17.4727 4.068C17.4727 4.25348 17.5098 4.40187 17.5098 4.58736C17.3985 4.43897 17.3243 4.29058 17.213 4.17929C17.3243 4.21639 17.3985 4.14219 17.2872 4.0309C17.1759 3.91961 16.9534 3.73413 16.8421 3.62284C16.7308 3.47445 16.6566 3.51155 16.6566 3.62284C16.6566 3.73413 16.6566 3.84542 16.6566 3.95671C16.6566 4.068 16.6566 4.14219 16.7679 4.32768C17.0275 4.66155 17.3243 4.99542 17.5469 5.32929C17.6582 6.51639 17.6953 7.29542 17.6953 7.77768C17.6953 8.07445 17.584 8.22284 17.4356 8.25994C17.2872 8.29703 17.1388 8.22284 16.9905 8.00026C16.7308 7.62929 16.6195 7.70348 16.434 8.03736C16.2485 8.37123 16.1001 8.6309 15.9888 8.85348C15.9146 9.07606 15.7292 9.26155 15.5808 8.96477Z" fill="white"/>
<path d="M19.1425 4.84698C19.1425 5.06956 19.2167 5.03247 19.2538 4.84698C19.2909 4.6615 19.2909 4.29053 19.1796 4.06795C19.0683 3.80827 19.0312 3.91956 18.9941 3.99376C18.9199 4.10505 18.9199 4.14214 19.0312 4.25343C19.0683 4.36472 19.1425 4.6244 19.1425 4.84698Z" fill="white"/>
<path d="M20.1441 7.14708C20.07 5.58902 19.8845 4.92127 19.9216 4.32773C20.07 4.43902 20.107 4.40192 20.0329 4.21644C19.9587 4.03095 19.8474 3.80837 19.7732 3.58579C19.699 3.40031 19.6619 3.4374 19.5506 3.58579C19.4393 3.73418 19.4393 3.84547 19.4764 3.91966C19.699 5.8116 19.8103 6.81321 19.8474 7.40676C19.8845 8.22289 19.699 8.70515 18.8829 9.2616C18.6232 9.44708 18.3264 9.63256 18.957 9.48418C19.5506 9.29869 20.2183 8.89063 20.1441 7.14708Z" fill="white"/>
<path d="M18.0666 8.77923C17.9553 8.92762 18.215 9.00182 18.2521 8.89053C18.3263 9.00182 18.2521 9.1873 18.1408 9.29859C17.9553 9.44698 18.0666 9.48407 18.1779 9.37278C18.2892 9.29859 18.586 8.96472 18.4005 8.74214C18.2892 8.66794 18.1408 8.66794 18.0666 8.77923Z" fill="white"/>
<path d="M17.2496 11.5245C16.7673 11.5245 16.3222 11.5245 15.8399 11.5616V11.4132C15.9883 11.2277 15.9512 11.2277 15.8399 11.0422C15.8028 10.968 15.7657 10.8938 15.6544 11.0422C15.5431 11.1906 15.5431 11.2277 15.6915 11.4132V11.5616C12.0189 11.5987 7.97538 11.5616 4.48828 11.5245C4.85925 12.1551 6.12054 12.118 7.27054 12.118C8.30925 12.118 11.4254 12.118 15.6544 12.0068V12.1922C15.506 12.3777 15.5431 12.3777 15.6544 12.5632C15.7657 12.7116 15.8028 12.6374 15.8399 12.5632C15.877 12.5261 15.877 12.489 15.877 12.489H16.4334C16.4334 12.5632 16.5447 12.6003 16.5818 12.6003C16.6189 12.6003 16.7302 12.5632 16.7302 12.489H17.3609C17.4351 12.6003 17.5092 12.6374 17.6205 12.6374C17.8431 12.6374 17.9544 12.3777 17.9173 12.0438C17.8802 11.5616 17.6947 11.4874 17.2496 11.5245ZM16.7302 12.2664C16.7302 12.1922 16.6189 12.1551 16.5818 12.1551C16.5447 12.1551 16.4334 12.1922 16.4334 12.2664H15.877C15.877 12.2293 15.8399 12.1922 15.7657 12.118V11.9326C16.248 11.9326 16.7673 11.8955 17.2867 11.8955C17.2496 12.0068 17.2496 12.118 17.2496 12.2293L16.7302 12.2664Z" fill="white"/>
<path d="M17.2507 11.5245C16.7684 11.5245 16.3232 11.5245 15.841 11.5616V11.4132C15.9894 11.2277 15.9523 11.2277 15.841 11.0422C15.8039 10.968 15.7668 10.8938 15.6555 11.0422C15.5442 11.1906 15.5442 11.2277 15.6926 11.4132V11.5616C15.6926 11.5616 15.6926 11.5616 15.6555 11.5616L16.1749 12.0068C16.5458 12.0068 16.9539 11.9697 17.3249 11.9697C17.2878 12.0809 17.2878 12.1922 17.2878 12.3035H16.7313C16.7313 12.2293 16.62 12.1922 16.5829 12.1922C16.5458 12.1922 16.4716 12.2293 16.4716 12.2664L16.7313 12.489V12.4519H17.362C17.4361 12.5632 17.5103 12.6003 17.6216 12.6003C17.8442 12.6003 17.9555 12.3406 17.9184 12.0068C17.8813 11.5616 17.6958 11.4874 17.2507 11.5245Z" fill="white"/>
</svg>
