<svg width="20" height="20" viewBox="0 0 20 20" fill="none" xmlns="http://www.w3.org/2000/svg">
<path d="M19.7798 9.88L17.7798 7.38C17.6867 7.26215 17.5682 7.16679 17.4332 7.101C17.2981 7.03521 17.15 7.00069 16.9998 7H10.9998V1C10.9998 0.734784 10.8944 0.48043 10.7069 0.292893C10.5194 0.105357 10.265 0 9.99979 0C9.73458 0 9.48022 0.105357 9.29269 0.292893C9.10515 0.48043 8.99979 0.734784 8.99979 1V2H2.99979C2.84959 2.00069 2.70147 2.03521 2.56643 2.101C2.4314 2.16679 2.31292 2.26215 2.21979 2.38L0.219793 4.88C0.0802838 5.05655 0.00439453 5.27499 0.00439453 5.5C0.00439453 5.72501 0.0802838 5.94345 0.219793 6.12L2.21979 8.62C2.31292 8.73785 2.4314 8.83321 2.56643 8.899C2.70147 8.96479 2.84959 8.99931 2.99979 9H8.99979V18H6.99979C6.73458 18 6.48022 18.1054 6.29269 18.2929C6.10515 18.4804 5.99979 18.7348 5.99979 19C5.99979 19.2652 6.10515 19.5196 6.29269 19.7071C6.48022 19.8946 6.73458 20 6.99979 20H12.9998C13.265 20 13.5194 19.8946 13.7069 19.7071C13.8944 19.5196 13.9998 19.2652 13.9998 19C13.9998 18.7348 13.8944 18.4804 13.7069 18.2929C13.5194 18.1054 13.265 18 12.9998 18H10.9998V14H16.9998C17.15 13.9993 17.2981 13.9648 17.4332 13.899C17.5682 13.8332 17.6867 13.7379 17.7798 13.62L19.7798 11.12C19.9193 10.9435 19.9952 10.725 19.9952 10.5C19.9952 10.275 19.9193 10.0565 19.7798 9.88ZM8.99979 7H3.47979L2.27979 5.5L3.47979 4H8.99979V7ZM16.5198 12H10.9998V9H16.5198L17.7198 10.5L16.5198 12Z" fill="#8BB2C9"/>
</svg>
