<svg width="54" height="54" viewBox="0 0 54 54" fill="none" xmlns="http://www.w3.org/2000/svg">
<path d="M27.5 31.5H26.5C26.2348 31.5 25.9804 31.6054 25.7929 31.7929C25.6054 31.9804 25.5 32.2348 25.5 32.5C25.5 32.7652 25.6054 33.0196 25.7929 33.2071C25.9804 33.3946 26.2348 33.5 26.5 33.5H27.5C27.7652 33.5 28.0196 33.3946 28.2071 33.2071C28.3946 33.0196 28.5 32.7652 28.5 32.5C28.5 32.2348 28.3946 31.9804 28.2071 31.7929C28.0196 31.6054 27.7652 31.5 27.5 31.5ZM27.5 27.5H26.5C26.2348 27.5 25.9804 27.6054 25.7929 27.7929C25.6054 27.9804 25.5 28.2348 25.5 28.5C25.5 28.7652 25.6054 29.0196 25.7929 29.2071C25.9804 29.3946 26.2348 29.5 26.5 29.5H27.5C27.7652 29.5 28.0196 29.3946 28.2071 29.2071C28.3946 29.0196 28.5 28.7652 28.5 28.5C28.5 28.2348 28.3946 27.9804 28.2071 27.7929C28.0196 27.6054 27.7652 27.5 27.5 27.5ZM22.5 31.5H21.5C21.2348 31.5 20.9804 31.6054 20.7929 31.7929C20.6054 31.9804 20.5 32.2348 20.5 32.5C20.5 32.7652 20.6054 33.0196 20.7929 33.2071C20.9804 33.3946 21.2348 33.5 21.5 33.5H22.5C22.7652 33.5 23.0196 33.3946 23.2071 33.2071C23.3946 33.0196 23.5 32.7652 23.5 32.5C23.5 32.2348 23.3946 31.9804 23.2071 31.7929C23.0196 31.6054 22.7652 31.5 22.5 31.5ZM22.5 27.5H21.5C21.2348 27.5 20.9804 27.6054 20.7929 27.7929C20.6054 27.9804 20.5 28.2348 20.5 28.5C20.5 28.7652 20.6054 29.0196 20.7929 29.2071C20.9804 29.3946 21.2348 29.5 21.5 29.5H22.5C22.7652 29.5 23.0196 29.3946 23.2071 29.2071C23.3946 29.0196 23.5 28.7652 23.5 28.5C23.5 28.2348 23.3946 27.9804 23.2071 27.7929C23.0196 27.6054 22.7652 27.5 22.5 27.5ZM36.5 21.5H33.5V17.5C33.5 17.3687 33.4742 17.2386 33.4239 17.1173C33.3737 16.9959 33.3 16.8857 33.2072 16.7928C33.1143 16.7 33.0041 16.6263 32.8827 16.5761C32.7614 16.5258 32.6313 16.5 32.5 16.5H21.5C21.3687 16.5 21.2386 16.5258 21.1173 16.5761C20.9959 16.6263 20.8857 16.7 20.7928 16.7928C20.7 16.8857 20.6263 16.9959 20.5761 17.1173C20.5258 17.2386 20.5 17.3687 20.5 17.5V21.5H17.5C17.3687 21.5 17.2386 21.5258 17.1173 21.5761C16.9959 21.6263 16.8857 21.7 16.7928 21.7928C16.7 21.8857 16.6263 21.9959 16.5761 22.1173C16.5258 22.2386 16.5 22.3687 16.5 22.5V36.5C16.5 36.6313 16.5258 36.7614 16.5761 36.8827C16.6263 37.0041 16.7 37.1143 16.7928 37.2072C16.8857 37.3 16.9959 37.3737 17.1173 37.4239C17.2386 37.4742 17.3687 37.5 17.5 37.5H36.5C36.6313 37.5 36.7614 37.4742 36.8827 37.4239C37.0041 37.3737 37.1143 37.3 37.2072 37.2072C37.3 37.1143 37.3737 37.0041 37.4239 36.8827C37.4742 36.7614 37.5 36.6313 37.5 36.5V22.5C37.5 22.3687 37.4742 22.2386 37.4239 22.1173C37.3737 21.9959 37.3 21.8857 37.2072 21.7928C37.1143 21.7 37.0041 21.6263 36.8827 21.5761C36.7614 21.5258 36.6313 21.5 36.5 21.5ZM35.5 35.5H18.5V23.5H21.5C21.6313 23.5 21.7614 23.4742 21.8827 23.4239C22.0041 23.3737 22.1143 23.3 22.2072 23.2072C22.3 23.1143 22.3737 23.0041 22.4239 22.8827C22.4742 22.7614 22.5 22.6313 22.5 22.5V18.5H31.5V22.5C31.5 22.6313 31.5258 22.7614 31.5761 22.8827C31.6263 23.0041 31.7 23.1143 31.7928 23.2072C31.8857 23.3 31.9959 23.3737 32.1173 23.4239C32.2386 23.4742 32.3687 23.5 32.5 23.5H35.5V35.5ZM31.5 27.5C31.2348 27.5 30.9804 27.6054 30.7929 27.7929C30.6054 27.9804 30.5 28.2348 30.5 28.5C30.5 28.7652 30.6054 29.0196 30.7929 29.2071C30.9804 29.3946 31.2348 29.5 31.5 29.5H32.5C32.7652 29.5 33.0196 29.3946 33.2071 29.2071C33.3946 29.0196 33.5 28.7652 33.5 28.5C33.5 28.2348 33.3946 27.9804 33.2071 27.7929C33.0196 27.6054 32.7652 27.5 32.5 27.5H31.5ZM28.5 22H28V21.5C28 21.2348 27.8946 20.9804 27.7071 20.7929C27.5196 20.6054 27.2652 20.5 27 20.5C26.7348 20.5 26.4804 20.6054 26.2929 20.7929C26.1054 20.9804 26 21.2348 26 21.5V22H25.5C25.2348 22 24.9804 22.1054 24.7929 22.2929C24.6054 22.4804 24.5 22.7348 24.5 23C24.5 23.2652 24.6054 23.5196 24.7929 23.7071C24.9804 23.8946 25.2348 24 25.5 24H26V24.5C26 24.7652 26.1054 25.0196 26.2929 25.2071C26.4804 25.3946 26.7348 25.5 27 25.5C27.2652 25.5 27.5196 25.3946 27.7071 25.2071C27.8946 25.0196 28 24.7652 28 24.5V24H28.5C28.7652 24 29.0196 23.8946 29.2071 23.7071C29.3946 23.5196 29.5 23.2652 29.5 23C29.5 22.7348 29.3946 22.4804 29.2071 22.2929C29.0196 22.1054 28.7652 22 28.5 22ZM32.5 31.5H31.5C31.2348 31.5 30.9804 31.6054 30.7929 31.7929C30.6054 31.9804 30.5 32.2348 30.5 32.5C30.5 32.7652 30.6054 33.0196 30.7929 33.2071C30.9804 33.3946 31.2348 33.5 31.5 33.5H32.5C32.7652 33.5 33.0196 33.3946 33.2071 33.2071C33.3946 33.0196 33.5 32.7652 33.5 32.5C33.5 32.2348 33.3946 31.9804 33.2071 31.7929C33.0196 31.6054 32.7652 31.5 32.5 31.5Z" fill="#679AB4"/>
</svg>
